<mxfile host="app.diagrams.net" modified="2024-05-13T14:32:54.071Z" agent="Mozilla/5.0 (Windows NT 10.0; Win64; x64) AppleWebKit/537.36 (KHTML, like Gecko) Chrome/124.0.0.0 Safari/537.36 Edg/124.0.0.0" etag="QfNuxxoLSq7iget575mi" version="24.3.1" type="github">
  <diagram id="prtHgNgQTEPvFCAcTncT" name="Page-1">
    <mxGraphModel dx="1380" dy="782" grid="1" gridSize="10" guides="1" tooltips="1" connect="1" arrows="1" fold="1" page="1" pageScale="1" pageWidth="827" pageHeight="1169" math="0" shadow="0">
      <root>
        <mxCell id="0" />
        <mxCell id="1" parent="0" />
        <mxCell id="Uh9JWqwsvxEyxEd0ztW9-11" value="" style="rounded=0;whiteSpace=wrap;html=1;" vertex="1" parent="1">
          <mxGeometry x="490" y="110" width="290" height="690" as="geometry" />
        </mxCell>
        <mxCell id="Uh9JWqwsvxEyxEd0ztW9-12" value="" style="rounded=0;whiteSpace=wrap;html=1;" vertex="1" parent="1">
          <mxGeometry x="200" y="110" width="290" height="690" as="geometry" />
        </mxCell>
        <mxCell id="Uh9JWqwsvxEyxEd0ztW9-14" value="学生" style="text;html=1;align=center;verticalAlign=middle;whiteSpace=wrap;rounded=0;" vertex="1" parent="1">
          <mxGeometry x="315" y="130" width="60" height="30" as="geometry" />
        </mxCell>
        <mxCell id="Uh9JWqwsvxEyxEd0ztW9-15" value="简历生成模块" style="text;html=1;align=center;verticalAlign=middle;whiteSpace=wrap;rounded=0;" vertex="1" parent="1">
          <mxGeometry x="597.5" y="130" width="75" height="30" as="geometry" />
        </mxCell>
        <mxCell id="Uh9JWqwsvxEyxEd0ztW9-17" value="" style="verticalLabelPosition=bottom;verticalAlign=top;html=1;shape=mxgraph.flowchart.on-page_reference;fillColor=#000000;" vertex="1" parent="1">
          <mxGeometry x="220" y="190" width="30" height="30" as="geometry" />
        </mxCell>
        <mxCell id="Uh9JWqwsvxEyxEd0ztW9-18" value="点击生成简历" style="strokeWidth=2;html=1;shape=mxgraph.flowchart.terminator;whiteSpace=wrap;" vertex="1" parent="1">
          <mxGeometry x="360" y="175" width="100" height="60" as="geometry" />
        </mxCell>
        <mxCell id="Uh9JWqwsvxEyxEd0ztW9-19" value="" style="endArrow=none;html=1;rounded=0;entryX=1.001;entryY=0.105;entryDx=0;entryDy=0;entryPerimeter=0;" edge="1" parent="1">
          <mxGeometry width="50" height="50" relative="1" as="geometry">
            <mxPoint x="200" y="160" as="sourcePoint" />
            <mxPoint x="780.29" y="162.45000000000005" as="targetPoint" />
          </mxGeometry>
        </mxCell>
        <mxCell id="Uh9JWqwsvxEyxEd0ztW9-20" style="edgeStyle=orthogonalEdgeStyle;rounded=0;orthogonalLoop=1;jettySize=auto;html=1;exitX=1;exitY=0.5;exitDx=0;exitDy=0;exitPerimeter=0;entryX=0;entryY=0.5;entryDx=0;entryDy=0;entryPerimeter=0;" edge="1" parent="1" source="Uh9JWqwsvxEyxEd0ztW9-17" target="Uh9JWqwsvxEyxEd0ztW9-18">
          <mxGeometry relative="1" as="geometry" />
        </mxCell>
        <mxCell id="Uh9JWqwsvxEyxEd0ztW9-24" style="edgeStyle=orthogonalEdgeStyle;rounded=0;orthogonalLoop=1;jettySize=auto;html=1;exitX=0.5;exitY=1;exitDx=0;exitDy=0;exitPerimeter=0;entryX=1;entryY=0.5;entryDx=0;entryDy=0;entryPerimeter=0;" edge="1" parent="1" target="Uh9JWqwsvxEyxEd0ztW9-22">
          <mxGeometry relative="1" as="geometry">
            <mxPoint x="635" y="200" as="sourcePoint" />
            <mxPoint x="490" y="285" as="targetPoint" />
            <Array as="points">
              <mxPoint x="635" y="290" />
            </Array>
          </mxGeometry>
        </mxCell>
        <mxCell id="Uh9JWqwsvxEyxEd0ztW9-21" value="获取学生信息" style="strokeWidth=2;html=1;shape=mxgraph.flowchart.terminator;whiteSpace=wrap;" vertex="1" parent="1">
          <mxGeometry x="585" y="175" width="100" height="60" as="geometry" />
        </mxCell>
        <mxCell id="Uh9JWqwsvxEyxEd0ztW9-26" style="edgeStyle=orthogonalEdgeStyle;rounded=0;orthogonalLoop=1;jettySize=auto;html=1;exitX=0.5;exitY=1;exitDx=0;exitDy=0;exitPerimeter=0;" edge="1" parent="1" source="Uh9JWqwsvxEyxEd0ztW9-22" target="Uh9JWqwsvxEyxEd0ztW9-25">
          <mxGeometry relative="1" as="geometry" />
        </mxCell>
        <mxCell id="Uh9JWqwsvxEyxEd0ztW9-22" value="选择简历模版" style="strokeWidth=2;html=1;shape=mxgraph.flowchart.terminator;whiteSpace=wrap;" vertex="1" parent="1">
          <mxGeometry x="356" y="260" width="115" height="60" as="geometry" />
        </mxCell>
        <mxCell id="Uh9JWqwsvxEyxEd0ztW9-23" style="edgeStyle=orthogonalEdgeStyle;rounded=0;orthogonalLoop=1;jettySize=auto;html=1;exitX=1;exitY=0.5;exitDx=0;exitDy=0;exitPerimeter=0;entryX=0;entryY=0.5;entryDx=0;entryDy=0;entryPerimeter=0;" edge="1" parent="1" source="Uh9JWqwsvxEyxEd0ztW9-18" target="Uh9JWqwsvxEyxEd0ztW9-21">
          <mxGeometry relative="1" as="geometry" />
        </mxCell>
        <mxCell id="Uh9JWqwsvxEyxEd0ztW9-25" value="自动填充简历" style="strokeWidth=2;html=1;shape=mxgraph.flowchart.terminator;whiteSpace=wrap;" vertex="1" parent="1">
          <mxGeometry x="585" y="390" width="100" height="60" as="geometry" />
        </mxCell>
        <mxCell id="Uh9JWqwsvxEyxEd0ztW9-29" value="修改简历初稿" style="strokeWidth=2;html=1;shape=mxgraph.flowchart.terminator;whiteSpace=wrap;" vertex="1" parent="1">
          <mxGeometry x="360" y="390" width="100" height="60" as="geometry" />
        </mxCell>
        <mxCell id="Uh9JWqwsvxEyxEd0ztW9-30" style="edgeStyle=orthogonalEdgeStyle;rounded=0;orthogonalLoop=1;jettySize=auto;html=1;exitX=0;exitY=0.5;exitDx=0;exitDy=0;exitPerimeter=0;entryX=1;entryY=0.5;entryDx=0;entryDy=0;entryPerimeter=0;" edge="1" parent="1" source="Uh9JWqwsvxEyxEd0ztW9-25" target="Uh9JWqwsvxEyxEd0ztW9-29">
          <mxGeometry relative="1" as="geometry">
            <mxPoint x="585" y="540" as="sourcePoint" />
          </mxGeometry>
        </mxCell>
        <mxCell id="Uh9JWqwsvxEyxEd0ztW9-31" value="点击保存简历" style="strokeWidth=2;html=1;shape=mxgraph.flowchart.terminator;whiteSpace=wrap;" vertex="1" parent="1">
          <mxGeometry x="360" y="510" width="100" height="60" as="geometry" />
        </mxCell>
        <mxCell id="Uh9JWqwsvxEyxEd0ztW9-32" style="edgeStyle=orthogonalEdgeStyle;rounded=0;orthogonalLoop=1;jettySize=auto;html=1;exitX=0.5;exitY=1;exitDx=0;exitDy=0;exitPerimeter=0;entryX=0.5;entryY=0;entryDx=0;entryDy=0;entryPerimeter=0;" edge="1" parent="1" source="Uh9JWqwsvxEyxEd0ztW9-29" target="Uh9JWqwsvxEyxEd0ztW9-31">
          <mxGeometry relative="1" as="geometry" />
        </mxCell>
        <mxCell id="Uh9JWqwsvxEyxEd0ztW9-33" value="导出简历文件" style="strokeWidth=2;html=1;shape=mxgraph.flowchart.terminator;whiteSpace=wrap;" vertex="1" parent="1">
          <mxGeometry x="578" y="510" width="100" height="60" as="geometry" />
        </mxCell>
        <mxCell id="Uh9JWqwsvxEyxEd0ztW9-34" style="edgeStyle=orthogonalEdgeStyle;rounded=0;orthogonalLoop=1;jettySize=auto;html=1;exitX=1;exitY=0.5;exitDx=0;exitDy=0;exitPerimeter=0;entryX=0;entryY=0.5;entryDx=0;entryDy=0;entryPerimeter=0;" edge="1" parent="1" source="Uh9JWqwsvxEyxEd0ztW9-31" target="Uh9JWqwsvxEyxEd0ztW9-33">
          <mxGeometry relative="1" as="geometry" />
        </mxCell>
        <mxCell id="Uh9JWqwsvxEyxEd0ztW9-39" style="edgeStyle=orthogonalEdgeStyle;rounded=0;orthogonalLoop=1;jettySize=auto;html=1;exitX=0;exitY=0.5;exitDx=0;exitDy=0;exitPerimeter=0;entryX=1;entryY=0.5;entryDx=0;entryDy=0;" edge="1" parent="1" source="Uh9JWqwsvxEyxEd0ztW9-35" target="Uh9JWqwsvxEyxEd0ztW9-37">
          <mxGeometry relative="1" as="geometry" />
        </mxCell>
        <mxCell id="Uh9JWqwsvxEyxEd0ztW9-35" value="退出简历生成模块" style="strokeWidth=2;html=1;shape=mxgraph.flowchart.terminator;whiteSpace=wrap;" vertex="1" parent="1">
          <mxGeometry x="360" y="630" width="100" height="60" as="geometry" />
        </mxCell>
        <mxCell id="Uh9JWqwsvxEyxEd0ztW9-36" style="edgeStyle=orthogonalEdgeStyle;rounded=0;orthogonalLoop=1;jettySize=auto;html=1;exitX=0.5;exitY=1;exitDx=0;exitDy=0;exitPerimeter=0;entryX=1;entryY=0.5;entryDx=0;entryDy=0;entryPerimeter=0;" edge="1" parent="1" source="Uh9JWqwsvxEyxEd0ztW9-33" target="Uh9JWqwsvxEyxEd0ztW9-35">
          <mxGeometry relative="1" as="geometry" />
        </mxCell>
        <mxCell id="Uh9JWqwsvxEyxEd0ztW9-37" value="" style="ellipse;whiteSpace=wrap;html=1;aspect=fixed;" vertex="1" parent="1">
          <mxGeometry x="210" y="635" width="50" height="50" as="geometry" />
        </mxCell>
        <mxCell id="Uh9JWqwsvxEyxEd0ztW9-38" value="" style="verticalLabelPosition=bottom;verticalAlign=top;html=1;shape=mxgraph.flowchart.on-page_reference;fillColor=#000000;" vertex="1" parent="1">
          <mxGeometry x="220" y="645" width="30" height="30" as="geometry" />
        </mxCell>
      </root>
    </mxGraphModel>
  </diagram>
</mxfile>
